Coordinates
version=1
nRows=7
nColumns=40
inDegrees=yes

Units are S.I. units (second, meters, Newtons, ...)
Angles are in degrees.

endheader
time	pelvis_tilt	pelvis_list	pelvis_rotation	pelvis_tx	pelvis_ty	pelvis_tz	hip_flexion_r	hip_adduction_r	hip_rotation_r	knee_angle_r	knee_angle_r_beta	ankle_angle_r	subtalar_angle_r	mtp_angle_r	hip_flexion_l	hip_adduction_l	hip_rotation_l	knee_angle_l	knee_angle_l_beta	ankle_angle_l	subtalar_angle_l	mtp_angle_l	lumbar_extension	lumbar_bending	lumbar_rotation	arm_flex_r	arm_add_r	arm_rot_r	elbow_flex_r	pro_sup_r	wrist_flex_r	wrist_dev_r	arm_flex_l	arm_add_l	arm_rot_l	elbow_flex_l	pro_sup_l	wrist_flex_l	wrist_dev_l
     10.36000000	     -5.22268001	     -3.76431699	     -2.93520412	      0.71863017	      0.92240016	      0.44962996	     26.73735773	      0.22833475	    -12.34757224	     11.73994231	     11.73994231	      2.17621542	      7.48607037	      7.13562485	      3.47350871	     -2.53109435	     -3.87007661	     16.47864277	     16.47864277	     19.69727984	     -9.00598475	      0.38472522	    -10.68016292	      7.85591140	      0.50540995	      1.08875844	    -10.55820273	    -18.68832385	     27.89126938	     46.93046463	      0.00000000	      0.00000000	     -5.00210651	    -16.51776413	      2.72584793	     79.03385894	     46.96216556	      0.00000000	      0.00000000
     10.37357143	     -5.25123152	     -3.73627329	     -2.96947959	      0.72009815	      0.92111814	      0.45144708	     26.42986819	      0.34123211	    -12.40414902	     12.05563148	     12.05563148	      0.74822438	      6.89011988	      2.94371551	      2.94957218	     -2.67750168	     -4.32413422	     16.61626736	     16.61626736	     20.53494600	     -8.16431946	      0.80224537	    -10.54516081	      7.84191493	      0.62449429	      1.63042514	    -10.84425934	    -17.93514180	     29.22133810	     46.78784165	      0.00000000	      0.00000000	     -5.21778235	    -16.40259767	      2.83396813	     78.82490712	     47.01052096	      0.00000000	      0.00000000
     10.38714286	     -5.26411831	     -3.83214232	     -2.95691831	      0.72164875	      0.92010319	      0.45324173	     26.23523891	      0.49637598	    -12.48177192	     12.97017492	     12.97017492	      0.70813070	      6.34989215	      2.57136543	      2.34985987	     -2.87996765	     -4.33202822	     16.60215880	     16.60215880	     20.88098085	     -8.16518782	      0.76750647	    -10.42790094	      7.99195565	      0.70140224	      2.59014065	    -11.16446608	    -17.91113454	     29.68488211	     46.77328999	      0.00000000	      0.00000000	     -5.42796625	    -16.22384035	      3.03715075	     78.57454393	     46.99517262	      0.00000000	      0.00000000
     10.40071429	     -5.23797665	     -3.74889612	     -2.86867290	      0.72329110	      0.91905081	      0.45504105	     26.25960312	      0.43527832	    -12.10940570	     14.47314431	     14.47314431	      0.74709893	      5.08064766	      1.58041013	      1.80891183	     -2.92643779	     -4.42502545	     16.75651654	     16.75651654	     21.30035166	     -7.89650162	      0.76826081	    -10.30285584	      7.94629012	      0.49916262	      3.56144974	    -11.30202809	    -17.82414660	     30.40128248	     46.74049285	      0.00000000	      0.00000000	     -5.71893078	    -16.26266871	      3.17909691	     77.98075987	     46.98077010	      0.00000000	      0.00000000
     10.41428571	     -5.23575186	     -3.81002722	     -2.75378710	      0.72504396	      0.91805737	      0.45711200	     26.01540997	      0.72535753	    -11.14674042	     15.33530195	     15.33530195	     -0.34211545	      2.69852166	     -2.04191448	      1.53045332	     -3.26114255	     -4.83714281	     17.43308040	     17.43308040	     22.23606566	     -6.99566128	      1.49953401	    -10.16989791	      8.04686379	      0.54835739	      3.99119241	    -11.69919867	    -17.09116783	     32.25351887	     46.58880067	      0.00000000	      0.00000000	     -5.77832073	    -15.95348445	      3.07337080	     77.17214295	     47.01413830	      0.00000000	      0.00000000
     10.42785714	     -5.19070466	     -3.77819348	     -2.57745128	      0.72683896	      0.91736720	      0.45894309	     25.96474648	      0.72939325	    -10.72499769	     16.74867373	     16.74867373	     -0.07569749	      1.53552457	     -2.73112652	      1.18509920	     -3.39877345	     -4.78607095	     17.97611118	     17.97611118	     22.55193075	     -6.93727543	      1.48699490	    -10.04810756	      8.06383197	      0.34737671	      4.94485507	    -11.98749457	    -16.92725982	     33.07908038	     46.54481144	      0.00000000	      0.00000000	     -6.00661560	    -15.86827167	      3.28746225	     76.61079670	     46.99911974	      0.00000000	      0.00000000
     10.44142857	     -5.07571455	     -3.89915754	     -2.34360555	      0.72863061	      0.91703552	      0.46095826	     25.69046719	      1.02314132	     -9.90973645	     17.78799206	     17.78799206	      0.10644252	     -0.32828047	     -3.36995833	      0.99695015	     -3.79855110	     -4.88991603	     18.96001408	     18.96001408	     22.98146536	     -6.60558523	      1.48476113	    -10.04819193	      8.25317588	      0.32034574	      5.54964325	    -12.37630894	    -16.45439911	     34.54703072	     46.44391948	      0.00000000	      0.00000000	     -6.01006716	    -15.57226037	      3.26444790	     75.74288735	     47.00805811	      0.00000000	      0.00000000
